<svg xmlns="http://www.w3.org/2000/svg" width="126.061" height="53.39" viewBox="0 0 126.061 53.39">
  <g id="RainyDays_logo" transform="translate(-6.73 -13.246)">
    <path id="Path_200" data-name="Path 200" d="M6.73,363.554V343.84h4.541q4.984,0,4.984,5.787a7.3,7.3,0,0,1-.54,2.963,4.19,4.19,0,0,1-1.9,1.966l3.045,9h-2.99l-2.631-8.417H9.554v8.417ZM9.554,346.5v6.146H11.16a2.849,2.849,0,0,0,1.191-.208,1.613,1.613,0,0,0,.692-.595,2.7,2.7,0,0,0,.3-.956,10.43,10.43,0,0,0,0-2.631,2.65,2.65,0,0,0-.332-.983,2.248,2.248,0,0,0-1.994-.775H9.555Z" transform="translate(0 -303.869)" fill="#fff"/>
    <path id="Path_201" data-name="Path 201" d="M188.25,363.554l4.4-19.714h2.353l4.4,19.714h-2.824l-.83-4.236h-3.849l-.83,4.236h-2.824Zm6.977-6.894-1.384-7.143h-.056L192.4,356.66h2.825Z" transform="translate(-166.846 -303.869)" fill="#fff"/>
    <path id="Path_202" data-name="Path 202" d="M395.8,363.554V343.84h2.825v19.714Z" transform="translate(-357.617 -303.869)" fill="#fff"/>
    <path id="Path_203" data-name="Path 203" d="M514.641,363.554V343.84h2.713l4.264,11.878h.056V343.84H524.5v19.714h-2.658L517.52,351.7h-.055v11.85H514.64Z" transform="translate(-466.85 -303.869)" fill="#fff"/>
    <path id="Path_204" data-name="Path 204" d="M707.916,363.554V355.22l-3.876-11.38h2.99l2.27,7.836h.056l2.27-7.836h2.99l-3.876,11.38v8.334h-2.825Z" transform="translate(-640.939 -303.869)" fill="#fff"/>
    <path id="Path_205" data-name="Path 205" d="M903.71,363.554V343.84h4.181a4.855,4.855,0,0,1,3.7,1.329,5.26,5.26,0,0,1,1.26,3.766v9.22a5.5,5.5,0,0,1-1.343,4.084,5.294,5.294,0,0,1-3.863,1.315Zm2.825-17.056v14.4h1.3a2.094,2.094,0,0,0,1.689-.6,2.882,2.882,0,0,0,.5-1.869v-9.5a2.983,2.983,0,0,0-.47-1.8,2.011,2.011,0,0,0-1.717-.637Z" transform="translate(-824.468 -303.869)" fill="#fff"/>
    <path id="Path_206" data-name="Path 206" d="M1081.13,363.554l4.4-19.714h2.353l4.4,19.714h-2.825l-.83-4.236h-3.849l-.83,4.236Zm6.977-6.894-1.384-7.143h-.055l-1.384,7.143h2.824Z" transform="translate(-987.545 -303.869)" fill="#fff"/>
    <path id="Path_207" data-name="Path 207" d="M1257.286,363.554V355.22l-3.876-11.38h2.99l2.27,7.836h.055l2.27-7.836h2.99l-3.876,11.38v8.334h-2.824Z" transform="translate(-1145.898 -303.869)" fill="#fff"/>
    <path id="Path_208" data-name="Path 208" d="M1455.92,347.669H1453.1v-.637a3.013,3.013,0,0,0-.457-1.675,1.69,1.69,0,0,0-1.537-.706,1.78,1.78,0,0,0-.941.221,1.853,1.853,0,0,0-.581.554,2.351,2.351,0,0,0-.3.816,5.293,5.293,0,0,0-.083.956,9.452,9.452,0,0,0,.041.969,1.835,1.835,0,0,0,.208.692,1.541,1.541,0,0,0,.484.526,4.385,4.385,0,0,0,.872.443l2.159.859a5.361,5.361,0,0,1,1.523.845,3.662,3.662,0,0,1,.914,1.121,5.265,5.265,0,0,1,.416,1.509,15,15,0,0,1,.111,1.924,10.165,10.165,0,0,1-.249,2.312,4.869,4.869,0,0,1-.8,1.813,3.978,3.978,0,0,1-1.523,1.218,5.378,5.378,0,0,1-2.3.443,5.036,5.036,0,0,1-1.91-.36,4.532,4.532,0,0,1-1.523-1,4.848,4.848,0,0,1-1.01-1.481,4.5,4.5,0,0,1-.374-1.842v-1.052h2.824v.886a2.308,2.308,0,0,0,.457,1.4,1.779,1.779,0,0,0,1.537.623,2.482,2.482,0,0,0,1.121-.208,1.49,1.49,0,0,0,.623-.6,2.176,2.176,0,0,0,.263-.927q.041-.54.041-1.2a12.091,12.091,0,0,0-.055-1.273,2.2,2.2,0,0,0-.222-.8,1.568,1.568,0,0,0-.513-.5,6.7,6.7,0,0,0-.845-.416l-2.021-.83a4.479,4.479,0,0,1-2.45-1.98,6.807,6.807,0,0,1-.623-3.087,7.141,7.141,0,0,1,.3-2.1,4.789,4.789,0,0,1,.913-1.716,4.19,4.19,0,0,1,1.481-1.149,4.942,4.942,0,0,1,2.146-.429,4.694,4.694,0,0,1,1.924.387,4.974,4.974,0,0,1,1.509,1.024,4.278,4.278,0,0,1,1.273,3.045v1.384Z" transform="translate(-1323.13 -302.021)" fill="#fff"/>
    <path id="Path_209" data-name="Path 209" d="M237.188,37.362a34.15,34.15,0,0,0,5.3-1.084c12.971-10.665-1.521,5.864,12.725-5.8,6.078-4.974,3.9-2.877,8.68,1.21,1.688,1.448,3.514-2.365,1.778-5.414-.051-.088,3.572-4.423,3.623-4.458-.044-.331,1.407,7.156,1.332,1.971,0-.037,1.046-3.643,1.711-3.686,1.437-.092-.606-1.378,1.863-2.922a8.089,8.089,0,0,0,1.559-2.619c.024.037,3.776,3.4,4.346,4.091.619.749,3.909,1.513,3.787,4.142-.006.146,1.212,2.77,1.134,4.167-.065,1.2,3.249,2.621,4.463,5.627,1.556,3.852-.42-3.673,1.171-1.247,1.3,1.977,2.209,1.262,4.381,4.471a12.982,12.982,0,0,0,1.215,1.546h.314a5.03,5.03,0,0,0-.354-1.027c-.361-.853-.749-4.015-1.22-4.306-.81-.5-3.931-2.525-3.921-3.179.051-3.137,4.081,2.237,3.016.023-2.04-4.243-1.146-1.487-2.281-2.11.517-.652.167-1.074.31-1.47.78-.26.913.116-.894-1.6-1.922-1.828.58-2.666-.465-4.971-.447-.983,1.191-.889,2.3.008a72.648,72.648,0,0,0,7.476,3.427,15.706,15.706,0,0,0,7.7,5.073,22.561,22.561,0,0,1-5.559-4.234,2.014,2.014,0,0,0,.219.063c3.2.525,2.408,1.112,4.313,2.178,1.223.166,3.77,3.21,7.252,4.091,1.842.468,3.744,3.772,5.729,5.189,3.762,2.681,1.195,1.306,5.308,2.507.4.119.748.233,1.05.344h1.444c-2.226-.762-3.618-2.67-5.207-3.221-3.13-1.079-4.723-3.412-6.747-5.7-2.137-2.417-5.172-2.155-6.281-3.5-.762-.924-5.217-3.294-6.439-3.694-.031-.028-.11-.045-.161-.08a2.655,2.655,0,0,0-.369-.179c-.279-.159-.362,0-.664,0a1.435,1.435,0,0,1-.507-.274c-.033-.019-.181-.08-.2-.1a2.756,2.756,0,0,0-.924-.538,3.5,3.5,0,0,1-.585-.255c-.325-.107-.422-.35-.887-.429a3.536,3.536,0,0,1-1.15-.374c0-.039-3.865-1.12-4.075-1.175a1.814,1.814,0,0,1-.241-.1c-.81-.91-2.124-1.1-3.144-1.669-.47-.262-2.329.73-2.985,1.155-.344.225-.529.221-.754.411-.138.116-1.125.552-1.285.413-.139-.123-.048-.08-.188-.11-.576-.127-.452.2-.731.241-.5.068-.285.141-.538.229-.418.15-.159.254-.6.246-.337-.507-1.292-.648-1.739-1.317-.1-.15-.935-.9-1.2-.9-.337,0-1.3-.994-1.836-1.171,0,0-.632-.444-.666-.472a3.862,3.862,0,0,1-.6-.327,4.238,4.238,0,0,0-1.253-.534,2.382,2.382,0,0,0-.614-.27c-.71-.174-.784-.583-1.3-.358a7.308,7.308,0,0,0-1.906.98,2.443,2.443,0,0,0-.737.155c-.3.285-.513.618-.842.611-.591-.011-.4.119-1.073.468a11.913,11.913,0,0,1-1.3.777c-.275.116-.925.728-1.2.7-.165.1-.44-.127-.764.372-.059.09-.424.08-.763.505a3.977,3.977,0,0,0-.457.286c-.585.6-.27.231-.534.38a9.3,9.3,0,0,1-1.162.6c-.786.3-.753.53-1.131.753a4.6,4.6,0,0,1-1.175.693c-.346.123-1.483,1.016-1.858,1.084s-1.69,1.309-2.213,1.535a1.587,1.587,0,0,0-.2.147c-.768.092-1.028.618-1.686.932-.3.143-.367.329-.738.432-.527.141-1.29.92-1.509.994-.444.154-1.163.826-1.572.787-.006,0-1.227.685-1.261.734s-.077.063-.075.108c-.449.352-.158-.266-1.019.754-.551.652-1.981,1.09-2.89,2.1-.2.225-.289-.317-1.289,1.175-.889,1.323-1.694,1.154-2.815,2.049-.839.669-1.4.38-2.667,1.39a18.128,18.128,0,0,1-2.779,1.793c-.372.2-.673.63-1.046.753h1.738Z" transform="translate(-210.23 0)" fill="#fff" fill-rule="evenodd"/>
    <path id="Path_210" data-name="Path 210" d="M155.315,658.447q-60.725,1.613-121.535,0,60.749-.924,121.535,0Z" transform="translate(-24.863 -592.618)" fill="#fff" fill-rule="evenodd"/>
  </g>
</svg>
