<?xml version="1.0" encoding="UTF-8"?><svg id="Layer_1" xmlns="http://www.w3.org/2000/svg" viewBox="0 0 1920 1080"><defs><style>.cls-1{fill-rule:evenodd;}.cls-1,.cls-2{fill:#053541;}</style></defs><path class="cls-2" d="m170.95,670.9v-243.86h56.17c41.1,0,61.65,23.86,61.65,71.58,0,14.38-2.23,26.6-6.68,36.65-4.45,10.05-12.28,18.15-23.46,24.32l37.67,111.31h-36.99l-32.54-104.12h-20.89v104.12h-34.93Zm34.93-210.98v76.03h19.87c6.16,0,11.07-.86,14.73-2.57,3.65-1.71,6.51-4.16,8.56-7.36,1.83-3.19,3.08-7.13,3.77-11.82.69-4.68,1.03-10.1,1.03-16.27s-.34-11.59-1.03-16.27c-.69-4.68-2.06-8.73-4.11-12.16-4.34-6.39-12.56-9.59-24.66-9.59h-18.15Z"/><path class="cls-2" d="m352.48,670.9l54.46-243.86h29.11l54.46,243.86h-34.93l-10.27-52.4h-47.61l-10.27,52.4h-34.93Zm86.31-85.28l-17.12-88.36h-.69l-17.12,88.36h34.94Z"/><path class="cls-2" d="m560.03,670.9v-243.86h34.94v243.86h-34.94Z"/><path class="cls-2" d="m678.87,670.9v-243.86h33.56l52.74,146.93h.69v-146.93h34.93v243.86h-32.88l-53.43-146.59h-.68v146.59h-34.94Z"/><path class="cls-2" d="m916.22,670.9v-103.09l-47.95-140.77h36.99l28.08,96.93h.69l28.08-96.93h36.99l-47.95,140.77v103.09h-34.94Z"/><path class="cls-2" d="m1067.94,670.9v-243.86h51.72c20.09,0,35.33,5.48,45.72,16.44,10.39,10.96,15.58,26.49,15.58,46.58v114.05c0,22.83-5.54,39.68-16.61,50.52-11.08,10.85-27,16.27-47.78,16.27h-48.63Zm34.94-210.98v178.1h16.1c9.82,0,16.78-2.45,20.89-7.36,4.11-4.91,6.17-12.61,6.17-23.12v-117.48c0-9.59-1.94-17.01-5.82-22.26-3.89-5.25-10.96-7.88-21.24-7.88h-16.1Z"/><path class="cls-2" d="m1245.35,670.9l54.46-243.86h29.11l54.46,243.86h-34.94l-10.27-52.4h-47.61l-10.27,52.4h-34.94Zm86.31-85.28l-17.12-88.36h-.68l-17.12,88.36h34.93Z"/><path class="cls-2" d="m1465.58,670.9v-103.09l-47.95-140.77h36.99l28.08,96.93h.68l28.08-96.93h36.99l-47.95,140.77v103.09h-34.93Z"/><path class="cls-2" d="m1730.33,497.25h-34.93v-7.88c0-7.99-1.88-14.9-5.65-20.72-3.77-5.82-10.1-8.73-19.01-8.73-4.79,0-8.68.92-11.64,2.74-2.97,1.83-5.37,4.11-7.19,6.85-1.83,2.97-3.08,6.34-3.77,10.1s-1.03,7.71-1.03,11.82c0,4.79.17,8.79.51,11.99.34,3.2,1.2,6.05,2.57,8.56,1.37,2.52,3.37,4.68,5.99,6.51,2.62,1.83,6.22,3.66,10.79,5.48l26.71,10.62c7.76,2.97,14.04,6.45,18.84,10.45,4.79,4,8.56,8.62,11.3,13.87,2.51,5.48,4.22,11.7,5.14,18.67.91,6.97,1.37,14.9,1.37,23.8,0,10.28-1.03,19.81-3.08,28.6-2.05,8.79-5.37,16.27-9.93,22.43-4.79,6.4-11.08,11.42-18.84,15.07-7.77,3.65-17.24,5.48-28.43,5.48-8.45,0-16.33-1.49-23.63-4.45-7.31-2.96-13.59-7.08-18.84-12.33-5.25-5.25-9.42-11.36-12.5-18.32-3.08-6.96-4.62-14.56-4.62-22.78v-13.01h34.93v10.96c0,6.39,1.88,12.16,5.65,17.3s10.1,7.71,19.01,7.71c5.93,0,10.56-.86,13.87-2.57,3.31-1.71,5.88-4.16,7.71-7.36,1.83-3.19,2.91-7.02,3.25-11.47.34-4.45.51-9.42.51-14.9,0-6.39-.23-11.64-.68-15.75-.46-4.11-1.37-7.42-2.74-9.93-1.6-2.51-3.71-4.56-6.34-6.17-2.63-1.59-6.11-3.31-10.45-5.14l-25-10.27c-15.07-6.17-25.17-14.33-30.31-24.49-5.14-10.16-7.71-22.89-7.71-38.19,0-9.13,1.25-17.81,3.77-26.03,2.51-8.22,6.28-15.29,11.3-21.23,4.79-5.93,10.9-10.67,18.32-14.21,7.42-3.54,16.27-5.31,26.54-5.31,8.67,0,16.61,1.6,23.8,4.79,7.19,3.2,13.41,7.42,18.67,12.67,10.5,10.96,15.75,23.52,15.75,37.67v17.12Z"/><path class="cls-2" d="m434.7,842.94h25.19c2.74,0,5.38.26,7.92.79,2.54.69,5.12,2.1,7.73,4.23,2.19,1.61,3.97,3.9,5.33,6.89,1.43,2.89,2.14,6.3,2.14,10.24,0,5.31-1.81,10.15-5.44,14.52-3.72,4.59-9.16,6.96-16.32,7.08h-16.03v28.01h-10.52v-71.75Zm10.52,33.52h15.62c3.92-.07,6.86-1.32,8.84-3.76,1.88-2.37,2.82-5.01,2.82-7.91,0-2.41-.38-4.43-1.15-6.08-.8-1.48-1.91-2.65-3.34-3.51-2.17-1.42-4.68-2.09-7.55-2.03h-15.24v23.29Z"/><path class="cls-2" d="m493.55,863.61h9.93v30.45c0,3.45.94,6.14,2.81,8.08,1.84,1.94,4.2,2.91,7.06,2.91s5.2-.97,7.01-2.91c1.84-1.94,2.77-4.63,2.77-8.08v-30.45h9.93v51.08h-9.93v-5.46h-.19c-3.27,4.04-7.54,6.05-12.81,6.05-4.1-.07-7.8-1.61-11.1-4.62-3.59-2.95-5.41-7.3-5.48-13.07v-33.99Z"/><path class="cls-2" d="m549.13,899.09c4.05,4.37,9.27,6.55,15.68,6.55,2.87,0,5.21-.57,7.03-1.72,1.82-1.15,2.72-2.76,2.72-4.82,0-1.84-.54-3.12-1.62-3.84-1.11-.75-2.6-1.17-4.44-1.23l-8.79-.79c-4.17-.39-7.56-1.84-10.17-4.33-2.67-2.43-4.04-5.82-4.11-10.19.06-5.25,1.86-9.19,5.39-11.81,3.43-2.62,7.79-3.94,13.07-3.94,2.29,0,4.34.15,6.15.44,1.81.33,3.51.79,5.1,1.38,3.05,1.28,5.79,3,8.21,5.16l-6.16,7.43c-1.91-1.42-3.93-2.6-6.07-3.53-2.1-.83-4.52-1.24-7.26-1.24-3.12,0-5.3.58-6.54,1.72-1.31,1.15-1.96,2.63-1.96,4.43-.07,1.15.43,2.15,1.48,3.01.96.95,2.64,1.56,5.06,1.82l8.21.64c5.16.39,8.88,2,11.18,4.83,2.13,2.76,3.2,6.26,3.2,10.5-.06,4.96-2.02,8.79-5.86,11.48-3.82,2.76-8.7,4.17-14.64,4.24-8.07,0-15.34-3.05-21.79-9.15l6.94-7.04Z"/><path class="cls-2" d="m596.06,842.94h9.93v26.08h.19c3.27-4.04,7.56-6.05,12.86-6.05,4.1,0,7.84,1.49,11.24,4.48,3.36,3.02,5.13,7.45,5.29,13.29v33.96h-9.93v-30.45c0-3.58-.92-6.31-2.77-8.18-1.81-1.91-4.15-2.86-7.01-2.86s-5.21.95-7.06,2.86c-1.88,1.87-2.81,4.6-2.81,8.18v30.45h-9.93v-71.75Z"/><path class="cls-2" d="m650.49,842.94h9.93v10.23h-9.93v-10.23Zm0,20.67h9.93v51.08h-9.93v-51.08Z"/><path class="cls-2" d="m674.35,863.61h9.93v5.41h.19c3.27-4.04,7.56-6.05,12.86-6.05,4.1,0,7.84,1.49,11.24,4.48,3.36,3.02,5.13,7.45,5.29,13.29v33.96h-9.93v-30.45c0-3.58-.92-6.31-2.77-8.18-1.81-1.91-4.15-2.86-7.01-2.86s-5.21.95-7.06,2.86c-1.88,1.87-2.81,4.6-2.81,8.18v30.45h-9.93v-51.08Z"/><path class="cls-2" d="m756.29,909.36c-3.27,3.82-7.53,5.79-12.76,5.92-3.21-.07-5.87-.77-8-2.12-2.22-1.28-3.92-2.66-5.1-4.14-1.3-1.67-2.24-3.73-2.81-6.16-.6-2.4-.9-6.96-.9-13.69s.3-11.51.9-13.94c.57-2.4,1.51-4.42,2.81-6.06,1.18-1.6,2.87-3.03,5.1-4.31,2.13-1.21,4.79-1.84,8-1.91,4.92,0,9.18,2.02,12.76,6.05v-5.41h9.93v49.85c-.13,7.68-2.27,13.32-6.43,16.93-4.19,3.71-9.2,5.56-15.04,5.56-6.7-.13-12.41-2.98-17.14-8.55l7.72-6.33c1.27,1.22,2.73,2.26,4.38,3.12,1.68.96,3.43,1.47,5.24,1.53,3.4,0,6.13-.97,8.19-2.92,2.03-1.98,3.08-4.71,3.14-8.21v-5.24Zm-19.64-20.16c0,3.92.13,6.62.38,8.1.22,1.55.75,2.83,1.57,3.85.67.92,1.68,1.76,3.05,2.52,1.3.92,2.92,1.38,4.86,1.38s3.56-.46,4.86-1.38c1.3-.76,2.29-1.6,2.96-2.52.83-1.02,1.38-2.3,1.67-3.85.19-1.48.29-4.18.29-8.1s-.1-6.75-.29-8.29c-.29-1.55-.84-2.8-1.67-3.75-.67-.92-1.65-1.83-2.96-2.72-1.3-.76-2.92-1.17-4.86-1.23-1.94.07-3.56.48-4.86,1.23-1.37.89-2.38,1.79-3.05,2.72-.83.96-1.35,2.21-1.57,3.75-.25,1.55-.38,4.31-.38,8.29Z"/><path class="cls-2" d="m805.55,848.06h9.93v15.55h7.25v7.87h-7.25v29.78c-.07,2.59,1.11,3.86,3.53,3.79h3.72v9.64h-5.19c-3.49,0-6.35-1.11-8.56-3.34-2.28-2.13-3.43-5.21-3.43-9.24v-30.63h-4.99v-7.87h4.99v-15.55Z"/><path class="cls-2" d="m832.96,842.94h9.93v26.08h.19c3.27-4.04,7.56-6.05,12.86-6.05,4.1,0,7.84,1.49,11.24,4.48,3.36,3.02,5.13,7.45,5.29,13.29v33.96h-9.93v-30.45c0-3.58-.92-6.31-2.77-8.18-1.81-1.91-4.15-2.86-7.01-2.86s-5.21.95-7.06,2.86c-1.88,1.87-2.81,4.6-2.81,8.18v30.45h-9.93v-71.75Z"/><path class="cls-2" d="m894.56,893.03c0,4.1,1.14,7.22,3.43,9.36,2.13,2.17,4.93,3.25,8.39,3.25,4.04,0,7.65-1.66,10.83-4.97l7.2,6.35c-5.05,5.57-10.99,8.33-17.82,8.26-2.61,0-5.15-.39-7.62-1.18-1.24-.43-2.45-1-3.62-1.72-1.24-.62-2.4-1.39-3.48-2.31-2.1-1.9-3.8-4.56-5.1-7.97-1.43-3.28-2.14-7.55-2.14-12.79s.62-9.25,1.86-12.6c1.24-3.41,2.83-6.1,4.76-8.07,1.97-2,4.18-3.44,6.62-4.33,2.41-.89,4.8-1.33,7.15-1.33,5.65.07,10.43,1.99,14.34,5.76,3.97,3.84,5.99,9.12,6.05,15.85v8.46h-30.86Zm20.92-8.46c-.13-3.99-1.16-7.01-3.1-9.05-1.91-1.95-4.36-2.92-7.36-2.92s-5.45.97-7.36,2.92c-1.88,2.04-2.91,5.06-3.11,9.05h20.92Z"/><path class="cls-2" d="m1009.41,894.65c-1.53,6.65-4.44,11.76-8.73,15.33-4.42,3.54-9.65,5.31-15.69,5.31-5.46-.13-10.02-1.51-13.68-4.13-3.72-2.53-6.42-5.45-8.1-8.76-.51-1.08-.97-2.12-1.38-3.1-.38-1.02-.7-2.3-.95-3.84-.48-2.89-.71-8.43-.71-16.63s.24-13.91.71-16.73c.51-2.82,1.29-5.1,2.34-6.84,1.68-3.31,4.38-6.27,8.1-8.86,3.65-2.62,8.21-3.97,13.68-4.04,6.71.07,12.17,2.11,16.4,6.14,4.23,4.06,6.89,9.09,8.01,15.08h-11.17c-.86-2.89-2.42-5.36-4.68-7.4-2.36-1.94-5.22-2.94-8.59-3.01-2.48.07-4.61.58-6.4,1.53-1.81.99-3.28,2.22-4.39,3.7-1.37,1.55-2.28,3.54-2.72,5.97-.51,2.56-.76,7.38-.76,14.45s.25,11.85.76,14.35c.45,2.5,1.35,4.52,2.72,6.07,1.12,1.48,2.58,2.68,4.39,3.6,1.78,1.08,3.92,1.63,6.4,1.63,5.92,0,10.35-3.27,13.28-9.81h11.16Z"/><path class="cls-2" d="m1015.24,889.1c0-5.39.43-9.53,1.29-12.42.89-2.83,2.26-5.21,4.1-7.15,1.37-1.7,3.27-3.21,5.72-4.55,2.42-1.27,5.51-1.94,9.3-2.01,3.91.07,7.07.74,9.49,2.02,2.38,1.35,4.23,2.87,5.53,4.58,1.96,1.94,3.36,4.31,4.18,7.14.79,2.89,1.19,7.02,1.19,12.4s-.4,9.48-1.19,12.3c-.83,2.82-2.22,5.27-4.19,7.33-.64.75-1.41,1.49-2.34,2.21-.83.82-1.89,1.53-3.19,2.12-2.41,1.41-5.57,2.15-9.48,2.21-3.78-.07-6.88-.8-9.29-2.21-2.45-1.28-4.35-2.72-5.72-4.33-1.84-2.07-3.21-4.51-4.1-7.33-.86-2.82-1.29-6.92-1.29-12.3Zm30.86.1c0-3.65-.16-6.32-.48-8-.32-1.61-.97-3.03-1.96-4.25-.73-1.15-1.81-2.06-3.25-2.72-1.37-.69-2.96-1.04-4.78-1.04-1.69,0-3.25.35-4.68,1.04-1.37.66-2.48,1.56-3.34,2.71-.86,1.22-1.48,2.63-1.86,4.25-.38,1.68-.57,4.31-.57,7.9s.19,6.16.57,7.8c.38,1.68,1,3.16,1.86,4.44.86.99,1.97,1.86,3.34,2.62,1.43.72,2.99,1.09,4.68,1.09,1.81,0,3.41-.36,4.78-1.09,1.43-.76,2.52-1.63,3.25-2.62.99-1.28,1.64-2.76,1.96-4.44.32-1.65.48-4.21.48-7.7Z"/><path class="cls-2" d="m1067.69,863.61h9.95v5.41h.19c3.38-4.04,7.83-6.05,13.34-6.05,3.54.07,6.4.67,8.56,1.82,2.13,1.28,4.08,2.9,5.86,4.87,4-4.53,9.37-6.76,16.09-6.69,4.23,0,8.1,1.49,11.61,4.48,3.48,3.02,5.28,7.45,5.41,13.29v33.96h-9.94v-30.45c0-3.58-.95-6.31-2.85-8.18-1.9-1.91-4.36-2.86-7.36-2.86s-5.47.95-7.41,2.86c-1.97,1.87-2.95,4.6-2.95,8.18v30.45h-9.93v-30.45c0-3.58-.95-6.31-2.85-8.18-1.94-1.91-4.41-2.86-7.41-2.86s-5.46.95-7.36,2.86c-2,1.87-3,4.6-3,8.18v30.45h-9.94v-51.08Z"/><path class="cls-2" d="m1155.54,871.48h-5.02v-7.87h5.02v-6.74c0-4.86,1.3-8.43,3.91-10.73,2.54-2.13,5.73-3.2,9.58-3.2h6.43v9.64h-5.68c-3-.1-4.43,1.32-4.3,4.25v6.77h9.98v7.87h-9.98v43.21h-9.93v-43.21Z"/><path class="cls-2" d="m1179.5,889.1c0-5.39.43-9.53,1.29-12.42.89-2.83,2.26-5.21,4.1-7.15,1.37-1.7,3.27-3.21,5.72-4.55,2.42-1.27,5.51-1.94,9.3-2.01,3.91.07,7.07.74,9.49,2.02,2.38,1.35,4.23,2.87,5.53,4.58,1.96,1.94,3.36,4.31,4.18,7.14.79,2.89,1.19,7.02,1.19,12.4s-.4,9.48-1.19,12.3c-.83,2.82-2.22,5.27-4.19,7.33-.64.75-1.41,1.49-2.34,2.21-.83.82-1.89,1.53-3.19,2.12-2.41,1.41-5.57,2.15-9.48,2.21-3.78-.07-6.88-.8-9.29-2.21-2.45-1.28-4.35-2.72-5.72-4.33-1.84-2.07-3.21-4.51-4.1-7.33-.86-2.82-1.29-6.92-1.29-12.3Zm30.86.1c0-3.65-.16-6.32-.48-8-.32-1.61-.97-3.03-1.96-4.25-.73-1.15-1.81-2.06-3.25-2.72-1.37-.69-2.96-1.04-4.78-1.04-1.69,0-3.25.35-4.68,1.04-1.37.66-2.48,1.56-3.34,2.71-.86,1.22-1.48,2.63-1.86,4.25-.38,1.68-.57,4.31-.57,7.9s.19,6.16.57,7.8c.38,1.68,1,3.16,1.86,4.44.86.99,1.97,1.86,3.34,2.62,1.43.72,2.99,1.09,4.68,1.09,1.81,0,3.41-.36,4.78-1.09,1.43-.76,2.52-1.63,3.25-2.62.99-1.28,1.64-2.76,1.96-4.44.32-1.65.48-4.21.48-7.7Z"/><path class="cls-2" d="m1232.35,863.61h9.93v5.41h.21c3.27-4.04,7.57-6.05,12.88-6.05,3.97.07,7.44,1.37,10.39,3.92l-7.25,8.88c-2.1-1.71-4.28-2.57-6.54-2.57-2.54,0-4.72.85-6.54,2.56-2.04,1.68-3.09,4.39-3.15,8.13v30.8h-9.93v-51.08Z"/><path class="cls-2" d="m1272.17,848.06h9.93v15.55h7.25v7.87h-7.25v29.78c-.07,2.59,1.11,3.86,3.53,3.79h3.72v9.64h-5.19c-3.49,0-6.35-1.11-8.57-3.34-2.28-2.13-3.43-5.21-3.43-9.24v-30.63h-4.99v-7.87h4.99v-15.55Z"/><path class="cls-2" d="m1320.39,905.68l31.51-53.1h-31.25v-9.64h44.12v8.18l-32.63,53.34h32.63v10.23h-44.38v-9.01Z"/><path class="cls-2" d="m1373.59,889.1c0-5.39.43-9.53,1.29-12.42.89-2.83,2.26-5.21,4.1-7.15,1.37-1.7,3.27-3.21,5.72-4.55,2.42-1.27,5.51-1.94,9.3-2.01,3.91.07,7.07.74,9.49,2.02,2.38,1.35,4.23,2.87,5.53,4.58,1.96,1.94,3.36,4.31,4.18,7.14.79,2.89,1.19,7.02,1.19,12.4s-.4,9.48-1.19,12.3c-.83,2.82-2.22,5.27-4.19,7.33-.64.75-1.41,1.49-2.34,2.21-.83.82-1.89,1.53-3.19,2.12-2.41,1.41-5.57,2.15-9.48,2.21-3.78-.07-6.88-.8-9.29-2.21-2.45-1.28-4.35-2.72-5.72-4.33-1.84-2.07-3.21-4.51-4.1-7.33-.86-2.82-1.29-6.92-1.29-12.3Zm30.86.1c0-3.65-.16-6.32-.48-8-.32-1.61-.97-3.03-1.96-4.25-.73-1.15-1.81-2.06-3.25-2.72-1.37-.69-2.96-1.04-4.78-1.04-1.69,0-3.25.35-4.68,1.04-1.37.66-2.48,1.56-3.34,2.71-.86,1.22-1.48,2.63-1.86,4.25-.38,1.68-.57,4.31-.57,7.9s.19,6.16.57,7.8c.38,1.68,1,3.16,1.86,4.44.86.99,1.97,1.86,3.34,2.62,1.43.72,2.99,1.09,4.68,1.09,1.81,0,3.41-.36,4.78-1.09,1.43-.76,2.52-1.63,3.25-2.62.99-1.28,1.64-2.76,1.96-4.44.32-1.65.48-4.21.48-7.7Z"/><path class="cls-2" d="m1426.44,863.61h9.93v5.41h.19c3.27-4.04,7.56-6.05,12.86-6.05,4.1,0,7.84,1.49,11.24,4.48,3.36,3.02,5.13,7.45,5.29,13.29v33.96h-9.93v-30.45c0-3.58-.92-6.31-2.77-8.18-1.81-1.91-4.15-2.86-7.01-2.86s-5.21.95-7.06,2.86c-1.88,1.87-2.81,4.6-2.81,8.18v30.45h-9.93v-51.08Z"/><path class="cls-2" d="m1488.04,893.03c0,4.1,1.14,7.22,3.43,9.36,2.13,2.17,4.93,3.25,8.39,3.25,4.04,0,7.65-1.66,10.83-4.97l7.2,6.35c-5.05,5.57-10.99,8.33-17.82,8.26-2.61,0-5.15-.39-7.62-1.18-1.24-.43-2.45-1-3.62-1.72-1.24-.62-2.4-1.39-3.48-2.31-2.1-1.9-3.8-4.56-5.1-7.97-1.43-3.28-2.14-7.55-2.14-12.79s.62-9.25,1.86-12.6c1.24-3.41,2.83-6.1,4.76-8.07,1.97-2,4.18-3.44,6.62-4.33,2.41-.89,4.8-1.33,7.15-1.33,5.65.07,10.43,1.99,14.34,5.76,3.97,3.84,5.99,9.12,6.05,15.85v8.46h-30.86Zm20.92-8.46c-.13-3.99-1.16-7.01-3.1-9.05-1.91-1.95-4.36-2.92-7.36-2.92s-5.45.97-7.36,2.92c-1.88,2.04-2.92,5.06-3.11,9.05h20.92Z"/><path class="cls-1" d="m421.18,394.75c24.96-3.26,63.06-11.38,65.5-13.41,160.45-131.92-18.81,72.54,157.41-71.7,75.19-61.53,48.3-35.59,107.37,14.97,20.88,17.91,43.47-29.26,21.99-66.97-.63-1.09,44.18-54.71,44.82-55.14-.54-4.1,17.41,88.52,16.48,24.38,0-.46,12.94-45.07,21.16-45.6,17.77-1.14-7.5-17.05,23.04-36.14,7.35-4.58,17.49-27.85,19.28-32.4.3.46,46.71,42.06,53.76,50.61,7.66,9.26,48.36,18.72,46.85,51.24-.08,1.8,14.99,34.27,14.03,51.55-.81,14.79,40.19,32.42,55.21,69.6,19.25,47.65-5.2-45.43,14.49-15.43,16.02,24.46,27.32,15.61,54.19,55.31,2.97,4.35,10.38,14.62,15.03,19.12h3.89c-.31-2.18-1.63-6.2-4.38-12.7-4.46-10.55-9.26-49.67-15.09-53.27-10.02-6.15-48.63-31.24-48.5-39.33.63-38.8,50.48,27.67,37.31.28-25.24-52.48-14.17-18.39-28.21-26.1,6.39-8.07,2.06-13.28,3.84-18.19,9.65-3.21,11.3,1.44-11.06-19.85-23.78-22.61,7.18-32.98-5.75-61.49-5.53-12.16,14.73-11,28.41.1,7.02,5.72,58.65,28.43,92.48,42.39,26.83,31.34,58.56,52.25,95.19,62.75-27.94-15.66-50.86-33.11-68.76-52.38,1.28.43,2.21.68,2.71.78,39.63,6.5,29.79,13.76,53.35,26.94,15.13,2.05,46.64,39.71,89.71,50.61,22.78,5.79,46.31,46.66,70.87,64.19,46.54,33.16,14.78,16.16,65.66,31.01,5.01,1.47,9.25,2.88,12.99,4.25h17.86c-27.54-9.43-44.75-33.03-64.41-39.84-38.72-13.35-58.42-42.21-83.46-70.51-26.44-29.9-63.98-26.66-77.7-43.27-9.43-11.43-64.54-40.75-79.65-45.7-.38-.35-1.36-.56-1.99-.99-2.06-1.39-3.06-1.39-4.56-2.22-3.45-1.97-4.48.05-8.21-.03-1.4,0-6.12-2.98-6.27-3.39-.41-.23-2.24-.99-2.5-1.19-2.35-1.97-8.52-6.35-11.43-6.65-2.07-.2-5.73-2.68-7.24-3.16-4.02-1.32-5.22-4.33-10.97-5.31-4.5-.76-10.29-2.25-14.22-4.63.05-.48-47.81-13.86-50.41-14.54-.47-.1-1.57-.56-2.98-1.19-10.02-11.26-26.28-13.56-38.89-20.64-5.81-3.24-28.81,9.03-36.93,14.29-4.26,2.78-6.54,2.73-9.33,5.08-1.71,1.44-13.92,6.83-15.89,5.11-1.72-1.52-.59-.99-2.32-1.36-7.13-1.57-5.59,2.5-9.04,2.98-6.15.84-3.53,1.75-6.66,2.83-5.17,1.85-1.97,3.14-7.4,3.04-4.17-6.27-15.98-8.02-21.51-16.29-1.22-1.85-11.56-11.08-14.87-11.15-4.17-.05-16.05-12.29-22.71-14.49-.06-.03-7.82-5.49-8.24-5.84-.06-.05-5.91-2.63-7.47-4.05-2.1-1.92-9.64-5.01-15.5-6.6-2.57-1.49-5.15-2.76-7.59-3.34-8.78-2.15-9.7-7.21-16.03-4.43-12.75,5.54-9.91,3.19-23.58,12.12-1.29-.18-8.42,1.24-9.12,1.92-3.65,3.52-6.34,7.64-10.41,7.56-7.31-.13-4.98,1.47-13.27,5.79-7.01,3.72-8.4,6.42-16.07,9.61-3.4,1.44-11.44,9-14.84,8.65-2.04,1.24-5.44-1.57-9.45,4.6-.73,1.11-5.24.99-9.44,6.25-.17.23-4.47,2.33-5.65,3.54-7.24,7.41-3.34,2.86-6.61,4.7-4.6,2.63-9.47,5.51-14.37,7.44-9.72,3.74-9.31,6.55-13.99,9.31-6.2,3.67-6.6,5.82-14.54,8.57-4.28,1.52-18.34,12.57-22.98,13.41-4.47.76-20.91,16.19-27.37,18.99-.51.25-2.06,1.42-2.5,1.82-9.5,1.14-12.72,7.64-20.86,11.53-3.72,1.77-4.54,4.07-9.13,5.34-6.52,1.75-15.96,11.38-18.67,12.29-5.49,1.9-14.39,10.22-19.44,9.74-.08-.03-15.18,8.47-15.6,9.08-.42.58-.95.78-.93,1.34-5.56,4.35-1.96-3.29-12.61,9.33-6.82,8.07-24.5,13.48-35.75,25.97-2.5,2.78-3.57-3.92-15.95,14.54-11,16.36-20.95,14.27-34.82,25.34-10.38,8.27-17.34,4.7-32.99,17.2-10.72,8.55-22.54,15.88-34.37,22.18-4.6,2.48-8.33,7.79-12.94,9.31h21.5Z"/><path class="cls-1" d="m1701.4,746.89c-500.78,13.3-1002.55,13.3-1503.39,0,500.98-7.62,1002.38-7.62,1503.39,0h0Z"/><path class="cls-1" d="m1633.46,918.83c-29.16-18.3-52.48-42.35-69.89-72.06,26.66,20.75,49.96,44.78,69.89,72.06h0Z"/><path class="cls-1" d="m1556.2,918.83c19.92-27.28,43.23-51.31,69.89-72.06-17.4,29.7-40.73,53.75-69.89,72.06h0Z"/><path class="cls-1" d="m398.78,918.83c-29.16-18.3-52.48-42.35-69.89-72.06,26.66,20.75,49.96,44.78,69.89,72.06h0Z"/><path class="cls-1" d="m321.52,918.83c19.92-27.28,43.23-51.31,69.89-72.06-17.4,29.7-40.73,53.75-69.89,72.06h0Z"/></svg>